<svg width="247" height="67" viewBox="0 0 247 67" fill="none" xmlns="http://www.w3.org/2000/svg">
<path d="M99.3358 57.3119C100.768 56.8917 102.17 56.3007 103.628 56.0784C116.524 54.153 129.491 52.5748 142.318 50.3287C152.367 48.5674 162.291 46.1366 172.206 43.7669C183.583 41.0476 195.047 38.5002 206.173 35.097C216.32 31.9898 226.579 28.8182 235.576 23.351C236.686 22.6748 237.78 21.9803 238.838 21.2491C244.595 17.2536 242.695 13.2095 237.984 10.5086C231.904 7.02566 224.708 6.06359 217.492 5.31062C203.772 3.87536 189.948 3.79335 176.071 4.27091C152.482 5.08741 129.016 7.18137 105.613 10.4919C85.1607 13.3811 65.0348 17.5347 45.1852 22.8306C34.8575 25.588 24.6658 28.8064 15.4239 33.8298C12.3585 35.4984 9.55206 37.6828 7.07843 39.9818C4.01772 42.8325 4.54465 46.0483 7.84554 48.546C13.3584 52.7189 20.31 54.4531 27.1668 56.2701C39.9293 59.6493 53.1297 61.5227 66.4993 62.5711C74.1578 63.1674 81.8938 63.2283 89.5848 63.5742C91.4562 63.659 93.3103 63.8992 95.3167 64.0844C86.506 67.8765 77.4209 66.7244 68.4953 66.3786C55.9154 65.8879 43.5048 64.3986 31.4521 61.478C22.3263 59.2675 13.3366 56.7365 5.61591 51.9771C-1.83859 47.3788 -0.62397 40.3786 5.30072 35.545C13.9347 28.4963 24.7794 24.7599 35.8405 21.5902C41.804 19.8797 47.7771 18.1883 53.8066 16.6851C59.821 15.1901 65.8931 13.8966 71.9681 12.6362C73.4498 12.3247 75.0442 12.4766 75.8981 12.4401C77.7462 11.9192 79.0349 11.5597 80.3146 11.1878C82.2616 10.6305 84.4941 10.4462 86.2852 10.2516C88.9326 9.96005 91.468 7.99577 94.5237 9.2613C95.6756 9.73696 97.7426 8.59337 99.4156 8.31C103.691 7.57921 107.977 6.89402 112.266 6.22871C116.865 5.51975 121.465 4.73055 126.09 4.21289C128.869 3.90184 131.701 4.17361 134.497 3.96114C136.598 3.80307 138.662 3.14752 140.762 2.96958C144.187 2.67568 147.631 2.66733 151.058 2.38668C153.244 2.207 155.53 1.2291 157.561 1.50553C162.887 2.22234 168.078 1.02133 173.319 0.797691C179.719 0.521176 186.139 0.37636 192.533 0.467905C206.856 0.668372 221.246 0.742027 234.836 4.82905C237.463 5.62185 240.049 6.81962 242.189 8.30804C249.038 13.0856 248.326 20.4243 240.955 25.0915C231.048 31.3624 219.95 35.4309 208.42 38.5526C193.629 42.5603 178.687 46.1283 163.854 50.0198C149.965 53.6655 135.853 56.1437 121.526 57.4603C114.912 58.065 108.251 58.0597 101.602 58.2869C100.889 58.3097 100.18 58.0381 99.4677 57.9004C99.4264 57.704 99.385 57.5076 99.3436 57.3112L99.3358 57.3119Z" fill="#FF5B04"/>
</svg>
