<svg width="58" height="27" viewBox="0 0 58 27" fill="none" xmlns="http://www.w3.org/2000/svg">
<path d="M0.25 14C0.25 6.8 6.1 0.949999 13.25 0.949999C20.45 0.949999 26.25 6.8 26.25 14C26.25 17.3 28.9 19.95 32.15 19.95C35.4 19.95 38 17.3 38 14C38 10.75 35.4 8.05 32.15 8.05C30.6 8.05 29.2 8.75 28.2 9.65C27.5 7.3 26.25 5.05 24.6 3.35C26.75 1.8 29.3 0.949999 32.15 0.949999C39.3 0.949999 45.25 6.8 45.25 14C45.25 21.2 39.3 27 32.15 27C24.9 27 19.1 21.2 19.1 14C19.1 10.75 16.5 8.1 13.25 8.1C9.95 8.1 7.4 10.75 7.4 14C7.4 17.3 9.95 19.95 13.25 19.95C14.8 19.95 16.2 19.3 17.25 18.35C17.9 20.75 19.1 22.85 20.75 24.65C18.65 26.15 16.1 27 13.25 27C6.1 27 0.25 21.2 0.25 14Z" fill="#180955"/>
<path d="M46.7466 16.632C47.9946 15.384 49.4346 14.808 51.0666 14.808C52.7946 14.808 54.2346 15.384 55.3866 16.632C56.6346 17.784 57.2106 19.224 57.2106 20.856C57.2106 22.584 56.6346 24.024 55.3866 25.272C54.2346 26.424 52.7946 27 51.0666 27C49.4346 27 47.9946 26.424 46.7466 25.272C45.5946 24.024 45.0186 22.584 45.0186 20.856C45.0186 19.224 45.5946 17.784 46.7466 16.632Z" fill="#5429FF"/>
</svg>
